<svg width="176" height="80" viewBox="0 0 176 80" fill="none" xmlns="http://www.w3.org/2000/svg">
<g clip-path="url(#clip0_4117_52256)">
<path d="M172.586 58.3011C170.592 57.9483 167.821 58.1497 167.821 58.1497H167.814C167.145 58.3649 166.45 58.5663 165.737 58.7483C156.161 61.2205 143.337 59.1899 143.337 59.1899C142.929 59.4655 142.469 59.6526 141.985 59.7395C141.502 59.8265 141.006 59.8116 140.53 59.6955L137.352 58.9233L135.704 62.6108C135.61 62.8226 135.446 62.9942 135.24 63.0959C135.034 63.1974 134.799 63.2224 134.576 63.1663L129.018 58.0274H64.7915L54.2813 58.6205L54.0712 58.8566C53.8166 59.1419 53.4919 59.3538 53.13 59.4709C52.7683 59.588 52.3821 59.606 52.0112 59.5233L45.0703 58.5122C19.9135 60.1388 13.2528 58.7499 13.2528 58.7499C8.24009 58.611 5.21875 58.5122 0.0687256 58.0274C1.1674 52.9386 7.6372 44.3288 12.2722 43.0427C16.939 41.7613 21.8179 41.4738 26.6003 42.1983L43.4484 44.6983L55.8744 44.3802C56.2875 44.3694 56.6954 44.4756 57.0519 44.687C57.4084 44.8984 57.6993 45.2063 57.8918 45.5761L58.1884 46.1455L67.1454 48.9497L68.2303 49.2552C68.6861 49.0069 69.2022 48.8945 69.7187 48.9315C70.2351 48.9683 70.7306 49.1529 71.1473 49.4636L71.4412 49.6816C82.3826 49.4344 91.4919 52.0136 98.8324 49.8552C99.0288 49.7983 101.579 48.6052 102.665 48.7094C103.391 48.7816 104.14 49.6816 104.14 49.6816C109.818 50.1288 112.93 50.5455 112.93 50.5455L114.105 50.2788C114.429 50.2077 114.767 50.2477 115.065 50.3926C115.364 50.5374 115.606 50.779 115.753 51.0788C115.999 51.5845 116.2 52.1112 116.353 52.6524L125.542 51.1247L128.837 48.933L130.853 47.2469C131.554 46.6606 132.428 46.3269 133.338 46.2983L144.599 45.9344C170.83 40.3788 173.302 48.4149 173.302 48.4149C177.791 53.1149 172.586 58.3011 172.586 58.3011Z" fill="#2E4B58"/>
<path d="M106.233 40.454C106.233 40.454 110.791 43.8165 109.266 47.4832C109.266 47.4832 109.183 46.4485 108.731 46.0513C108.731 46.0513 109.079 48.3999 107.266 49.4679C107.266 49.4679 108.043 46.7804 105.696 45.4499C105.696 45.4499 104.872 47.0999 103.106 46.6638C103.106 46.6638 103.423 47.2193 104.51 47.2846C103.845 47.6008 103.114 47.7461 102.38 47.7076C101.647 47.6692 100.934 47.4479 100.306 47.0638C100.306 47.0638 98.0248 48.8138 94.7164 47.2582H72.5796C70.8134 41.7193 63.955 14.6096 82.1449 6.06799C82.1449 6.06799 108.433 14.479 107.427 26.0485C106.42 37.6179 106.233 40.454 106.233 40.454Z" fill="#1B1A2E"/>
<path d="M101.708 50.4054C101.708 50.4054 82.1215 64.1859 69.0707 50.4054L70.5003 50.0359C71.5755 49.7577 72.5285 49.1256 73.209 48.2391C73.8896 47.3527 74.259 46.2624 74.2592 45.1401V30.2484H94.8153V45.3554C94.8157 46.4054 95.1788 47.4222 95.8419 48.2301C96.5048 49.0381 97.4262 49.5865 98.4464 49.7804L101.708 50.4054Z" fill="#FFC89F"/>
<path d="M101.429 18.7609C101.429 11.114 95.2997 4.91504 87.7385 4.91504C80.1772 4.91504 74.0477 11.114 74.0477 18.7609V35.6748C74.0477 43.3216 80.1772 49.5206 87.7385 49.5206C95.2997 49.5206 101.429 43.3216 101.429 35.6748V18.7609Z" fill="#FFC89F"/>
<path d="M96.1928 48.6109C95.252 48.9415 91.5811 50.0887 87.8772 49.2915C89.9482 49.7012 93.4282 48.5873 95.2342 47.2623C95.4683 47.768 95.7934 48.2254 96.1928 48.6109Z" fill="#FF9A6C"/>
<path d="M96.9898 26.2947C97.1461 25.6251 96.736 24.9541 96.0738 24.796C95.4117 24.638 94.7481 25.0527 94.5918 25.7223C94.4355 26.392 94.8457 27.063 95.5078 27.2211C96.1701 27.3791 96.8335 26.9644 96.9898 26.2947Z" fill="#1B1A2E"/>
<path d="M98.6305 24.2346C98.4481 24.0943 98.2537 23.9707 98.0496 23.8652C97.9493 23.8124 97.8463 23.7638 97.7433 23.7166C97.6403 23.6693 97.5332 23.6277 97.4261 23.5943C96.9987 23.4456 96.5487 23.3742 96.0967 23.3832C95.9848 23.3825 95.8727 23.3895 95.7616 23.4041L95.5927 23.4207C95.5378 23.4207 95.4828 23.4429 95.4279 23.4527C95.3166 23.4763 95.2068 23.4985 95.0969 23.5235C94.987 23.5485 94.8813 23.5957 94.7742 23.6304L94.6121 23.6832L94.4569 23.7541L94.1452 23.8929C93.9419 23.9957 93.7497 24.1221 93.545 24.2304C93.7291 24.0916 93.9158 23.9527 94.1095 23.8263L94.4157 23.661L94.5695 23.5791L94.7316 23.5152C94.8401 23.4721 94.95 23.4291 95.0585 23.3888C95.167 23.3485 95.2851 23.3332 95.3991 23.3054C95.4567 23.2929 95.513 23.2763 95.5707 23.2679L95.7451 23.2499C95.8612 23.2327 95.9782 23.2239 96.0953 23.2235C97.0379 23.2127 97.9473 23.5739 98.6305 24.2304V24.2346Z" fill="#1B1A2E"/>
<path d="M84.0568 26.2937C84.2131 25.624 83.803 24.953 83.1408 24.795C82.4787 24.6369 81.8152 25.0516 81.659 25.7213C81.5027 26.3909 81.9127 27.0619 82.5748 27.2199C83.2371 27.378 83.9005 26.9633 84.0568 26.2937Z" fill="#1B1A2E"/>
<path d="M85.6963 24.2346C85.5142 24.0943 85.3203 23.9707 85.1168 23.8652C85.0151 23.8124 84.9121 23.7638 84.8091 23.7166C84.7061 23.6693 84.6004 23.6277 84.4919 23.5943C84.0649 23.4456 83.6153 23.3742 83.1639 23.3832C83.0514 23.3825 82.9389 23.3895 82.8274 23.4041L82.6599 23.4207C82.6036 23.4207 82.5486 23.4429 82.4937 23.4527C82.3838 23.4763 82.2726 23.4985 82.1627 23.5235C82.0529 23.5485 81.9485 23.5957 81.84 23.6304L81.6779 23.6832L81.5227 23.7541L81.2124 23.8929C81.0077 23.9957 80.8155 24.1221 80.6108 24.2304C80.7962 24.0916 80.9816 23.9527 81.1753 23.8263L81.4829 23.661L81.6367 23.5791L81.7988 23.5152C81.9073 23.4721 82.0158 23.4291 82.1256 23.3888C82.2355 23.3485 82.3522 23.3332 82.4648 23.3054C82.5225 23.2929 82.5788 23.2763 82.6365 23.2679L82.8109 23.2499C82.9268 23.2328 83.0438 23.2239 83.1611 23.2235C84.1035 23.2127 85.0129 23.5739 85.6963 24.2304V24.2346Z" fill="#1B1A2E"/>
<path d="M91.0895 30.4777C91.1952 31.0068 91.2831 31.5388 91.3642 32.0707C91.4452 32.6027 91.529 33.136 91.6059 33.6693C91.6556 33.9395 91.6736 34.2145 91.6594 34.4888C91.6398 34.7667 91.568 35.0382 91.4479 35.2888C91.33 35.5453 91.1385 35.7602 90.8986 35.9054C90.6624 36.0332 90.4289 36.161 90.1899 36.2832C90.411 36.1318 90.6377 35.9888 90.8601 35.8415C91.073 35.692 91.2378 35.4824 91.3339 35.2388C91.4352 34.9978 91.4937 34.7406 91.507 34.479C91.5173 34.2146 91.4971 33.9499 91.4466 33.6902C91.3751 33.1568 91.3092 32.6221 91.2419 32.0874C91.1746 31.5527 91.1321 31.0152 91.0895 30.4777Z" fill="#1B1A2E"/>
<path d="M91.3188 38.7999C91.0778 39.3238 90.6566 39.7409 90.1336 39.9735C90.0008 40.036 89.863 40.0871 89.7216 40.1263C89.5731 40.1632 89.4213 40.186 89.2684 40.1943C88.9527 40.2166 88.6359 40.1756 88.3359 40.0735C87.7543 39.8768 87.2608 39.4777 86.9434 38.9471C86.7974 38.7031 86.6904 38.4374 86.6261 38.1596C86.5598 37.8806 86.5518 37.5906 86.6028 37.3082C86.8129 37.4471 87.0024 37.5777 87.181 37.6985C87.4103 37.8554 87.6204 37.9957 87.8237 38.1152C88.1346 38.3142 88.4674 38.4759 88.8152 38.5971C88.9748 38.6504 89.1383 38.6909 89.3042 38.718C89.3879 38.7388 89.4799 38.743 89.5788 38.7596C89.6777 38.7763 89.7697 38.7832 89.8727 38.7818C90.1076 38.7971 90.3603 38.793 90.6404 38.7902C90.8395 38.7943 91.0703 38.7916 91.3188 38.7999Z" fill="#E43F5A"/>
<path d="M90.6266 38.7957C90.4829 38.9253 90.3231 39.0354 90.1515 39.1235C89.6626 39.3668 89.0984 39.4053 88.5817 39.2304C88.2392 39.1156 87.9308 38.9154 87.6848 38.6485C87.4389 38.3814 87.2632 38.0562 87.1741 37.7026C87.4034 37.8596 87.6135 37.9999 87.8168 38.1193C88.1277 38.3183 88.4605 38.48 88.8083 38.6012C88.9679 38.6546 89.1314 38.695 89.2972 38.7221C89.381 38.7429 89.473 38.7471 89.5719 38.7637C89.6708 38.7804 89.7628 38.7874 89.8658 38.786C90.0938 38.8026 90.3465 38.7985 90.6266 38.7957Z" fill="white"/>
<path d="M98.6304 20.7608C98.0811 20.708 97.6485 20.658 97.2392 20.6344C96.83 20.6108 96.4715 20.5913 96.1076 20.6052C96.0619 20.6004 96.0159 20.6004 95.9703 20.6052H95.8329H95.6956C95.6489 20.6052 95.6036 20.6163 95.5583 20.6177C95.4649 20.6261 95.3688 20.6275 95.2699 20.6302C95.171 20.633 95.0721 20.6525 94.9691 20.6594C94.9183 20.6594 94.8647 20.6594 94.8112 20.6663C94.7576 20.6733 94.7068 20.683 94.6519 20.6872C94.5447 20.6997 94.4308 20.7066 94.3126 20.7122C94.0593 20.7429 93.8041 20.7554 93.5491 20.7497C93.5959 20.6208 93.6548 20.4966 93.7249 20.3788C93.7901 20.2613 93.8655 20.1498 93.9501 20.0455C94.038 19.9483 94.1314 19.8525 94.2248 19.7677C94.2728 19.7205 94.3236 19.6775 94.3745 19.6288C94.4253 19.5802 94.4829 19.5525 94.5406 19.5177C94.6532 19.4469 94.77 19.3788 94.8895 19.315C95.0089 19.2511 95.1421 19.2163 95.2726 19.1761C95.3372 19.1552 95.4017 19.133 95.469 19.1177L95.6723 19.0844C95.8082 19.0602 95.9461 19.0476 96.0843 19.0469C96.6379 19.034 97.1829 19.1868 97.6512 19.4858C97.7091 19.5209 97.7647 19.5598 97.8174 19.6025C97.871 19.6441 97.9245 19.6844 97.9753 19.7288C98.0734 19.8197 98.1651 19.917 98.25 20.0205C98.4309 20.2347 98.5611 20.488 98.6304 20.7608Z" fill="#1B1A2E"/>
<path d="M85.6964 20.7608C85.147 20.708 84.7158 20.658 84.3052 20.6344C83.8946 20.6108 83.5375 20.5913 83.1736 20.6052C83.128 20.6004 83.082 20.6004 83.0362 20.6052H82.8989H82.7616C82.7149 20.6052 82.6695 20.6163 82.6242 20.6177C82.5295 20.6261 82.4333 20.6275 82.3344 20.6302C82.2356 20.633 82.1381 20.6525 82.0351 20.6594C81.9829 20.6594 81.9293 20.6594 81.8757 20.6663C81.8222 20.6733 81.7728 20.683 81.7178 20.6872C81.6093 20.6997 81.4967 20.7066 81.3786 20.7122C81.1248 20.7429 80.8692 20.7554 80.6136 20.7497C80.6606 20.6208 80.7194 20.4966 80.7894 20.3788C80.8552 20.2616 80.9306 20.1501 81.0147 20.0455C81.1026 19.9483 81.1959 19.8525 81.2893 19.7677C81.3374 19.7205 81.3882 19.6775 81.439 19.6288C81.4898 19.5802 81.5489 19.5525 81.6052 19.5177C81.7192 19.4469 81.8345 19.3788 81.954 19.315C82.0735 19.2511 82.2067 19.2163 82.3372 19.1761C82.4017 19.1552 82.4677 19.133 82.5336 19.1177L82.7382 19.0844C82.8743 19.0601 83.0121 19.0476 83.1502 19.0469C83.7039 19.034 84.249 19.1868 84.7172 19.4858C84.7754 19.5205 84.8309 19.5595 84.8834 19.6025C84.9369 19.6441 84.9905 19.6844 85.0413 19.7288C85.1389 19.82 85.2308 19.9175 85.316 20.0205C85.4971 20.2347 85.6272 20.4879 85.6964 20.7608Z" fill="#1B1A2E"/>
<path d="M82.7739 7.74711C82.7739 7.74711 86.2731 6.45544 91.4259 10.7124C96.5787 14.9693 100.151 22.4624 105.828 25.586C105.828 25.586 107.557 38.9443 101.503 42.7026C101.503 42.7026 106.221 43.5887 107.473 37.2137C107.473 37.2137 114.403 31.1026 102.422 9.55822C100.351 4.62072 85.8543 -6.52373 70.7668 5.14433C70.7668 5.14433 63.37 9.18322 61.2262 23.3207C61.2262 23.3207 54.8264 42.7304 70.2682 46.7929C70.2682 46.7929 74.7412 51.2526 78.4932 48.0429C78.4932 48.0429 75.8577 47.1999 74.9321 45.9929C74.9321 45.9929 80.0038 48.4068 82.8384 46.204C82.8384 46.204 76.7518 45.2318 75.0516 42.2832C75.0516 42.2832 77.7983 45.0887 80.4213 42.1318C80.4213 42.1318 69.3687 41.4165 71.1321 26.261C71.1321 26.261 79.0562 30.0582 80.0684 20.6443C81.0448 11.5276 82.7739 7.74711 82.7739 7.74711Z" fill="#1B1A2E"/>
<path d="M107.464 37.1943C107.714 37.0039 107.949 36.7945 108.167 36.568C109.241 35.433 109.987 34.0223 110.324 32.4888C110.458 31.8795 110.546 31.2611 110.59 30.6388C110.63 30.011 110.626 29.3813 110.579 28.7541C110.579 28.5971 110.551 28.4402 110.533 28.2832L110.478 27.8124C110.419 27.5013 110.373 27.1874 110.3 26.8791C110.004 25.6445 109.573 24.4468 109.016 23.3082C107.87 21.0499 106.707 18.7818 105.599 16.5027C104.491 14.2235 103.44 11.8999 102.404 9.5763L102.444 9.55408C103.101 10.6457 103.701 11.7666 104.3 12.8874C104.898 14.0082 105.471 15.1443 106.038 16.2818C106.605 17.4193 107.137 18.5735 107.686 19.7235C107.961 20.2985 108.223 20.8763 108.487 21.4555C108.624 21.7443 108.752 22.0332 108.88 22.3249L109.252 23.2096C109.729 24.3946 110.129 25.6096 110.449 26.8471C110.792 28.0886 110.969 29.3707 110.977 30.6596C110.952 31.9663 110.638 33.2507 110.057 34.418C109.463 35.5666 108.601 36.5985 107.493 37.2402L107.464 37.1943Z" fill="#1B1A2E"/>
<path d="M82.7959 7.75542C82.2081 9.95264 81.8084 12.1846 81.4321 14.4221C81.3456 14.9777 81.2289 15.5332 81.1465 16.1013L81.0091 16.943C80.9721 17.2207 80.9281 17.4985 80.8952 17.7888C80.7574 18.9181 80.6772 20.0538 80.6548 21.1916C80.6397 21.7582 80.6315 22.3374 80.5628 22.911C80.4976 23.4912 80.369 24.0621 80.1796 24.6138C79.9837 25.1792 79.684 25.7021 79.2966 26.1555C79.0975 26.3839 78.871 26.5864 78.6223 26.7582C78.3726 26.9278 78.1045 27.0677 77.823 27.1749C77.2654 27.3738 76.6783 27.4748 76.0871 27.4735C75.5107 27.473 74.9357 27.4153 74.3704 27.3013C73.2579 27.0713 72.171 26.7284 71.1266 26.2777L71.1417 26.2332C72.2214 26.5356 73.3191 26.7675 74.4281 26.9277C74.9741 27.0027 75.5255 27.03 76.0761 27.0096C76.6138 26.9946 77.1455 26.893 77.6513 26.7082C78.1459 26.5225 78.5918 26.2246 78.9546 25.8374C79.3166 25.4362 79.6008 24.9698 79.7924 24.4624C79.9948 23.945 80.1457 23.4087 80.2428 22.861C80.295 22.5832 80.3376 22.3055 80.3719 22.0277C80.4062 21.7499 80.4255 21.4721 80.4516 21.1805L80.7262 17.7707C80.751 17.493 80.7647 17.2013 80.7853 16.9166L80.8581 16.0638C80.9034 15.4944 80.9666 14.9263 81.0394 14.3596C81.1121 13.7929 81.211 13.229 81.3278 12.6707C81.4445 12.1124 81.5612 11.5513 81.6958 10.9957C81.9618 9.88308 82.3159 8.79391 82.7547 7.73877L82.7959 7.75542Z" fill="#1B1A2E"/>
<path d="M101.429 22.0526C101.78 22.3707 102.124 22.6943 102.476 23.0082C102.828 23.3221 103.183 23.6304 103.547 23.9276C103.911 24.2248 104.283 24.5137 104.662 24.7915C104.852 24.9304 105.045 25.0693 105.24 25.1971L105.533 25.3943C105.633 25.4568 105.732 25.5207 105.831 25.5859C105.617 25.4873 105.409 25.3748 105.201 25.2609C104.992 25.1471 104.788 25.0179 104.596 24.8901C104.2 24.6307 103.817 24.3497 103.451 24.0484C103.086 23.7457 102.731 23.429 102.396 23.0943C102.061 22.7596 101.734 22.4165 101.429 22.0526Z" fill="#1F4068"/>
<path d="M82.7726 7.69718C83.6831 7.46524 84.6376 7.49301 85.5646 7.60968C86.4935 7.73989 87.4043 7.97949 88.2783 8.32357C88.7178 8.48468 89.138 8.69579 89.5624 8.8944C89.7697 9.00135 89.9744 9.11662 90.1804 9.22774L90.4894 9.39301L90.7956 9.57218C91.6038 10.0463 92.3833 10.5685 93.1303 11.1361C94.6327 12.2611 95.9978 13.5583 97.3423 14.8638C98.6868 16.1693 100.013 17.4931 101.44 18.707L101.431 18.7193C99.9434 17.5777 98.5783 16.282 97.2325 14.9792C96.5554 14.332 95.8852 13.6777 95.1986 13.0347C94.5119 12.3916 93.8101 11.7847 93.0795 11.1958C92.3537 10.6056 91.5816 10.0761 90.7709 9.61246L90.4688 9.43468L90.1584 9.27496C89.9483 9.17218 89.7464 9.06385 89.5322 8.96385C89.1037 8.78051 88.6807 8.58468 88.2398 8.43468C87.3711 8.10533 86.4715 7.86568 85.555 7.7194C84.6403 7.58051 83.6982 7.52913 82.7836 7.70413L82.7726 7.69718Z" fill="#1F4068"/>
<path d="M80.4241 42.1334C79.5677 42.0624 78.7254 41.8702 77.9219 41.5625C77.1152 41.2584 76.3504 40.8509 75.6463 40.35C74.2589 39.3182 73.1302 37.972 72.3503 36.4195C72.2569 36.2236 72.1498 36.0348 72.0674 35.8348L71.8202 35.2334C71.7391 35.032 71.6828 34.8167 71.6087 34.6181L71.507 34.3098C71.4768 34.2056 71.4521 34.1 71.4246 33.9945L71.264 33.3639L71.1431 32.725L71.0827 32.4042C71.0662 32.2973 71.0566 32.1889 71.0428 32.082L70.9659 31.4348C70.9371 31.2195 70.9357 31.0028 70.9193 30.7861L70.8835 30.1375C70.8835 29.7028 70.8835 29.2695 70.8932 28.8375C70.9028 28.4056 70.9412 27.9723 70.9769 27.5417L71.128 26.2528H71.1431C70.976 27.97 70.9695 29.6995 71.1239 31.4181C71.3093 33.1236 71.6732 34.8264 72.4258 36.3792C72.7908 37.1591 73.2563 37.8866 73.8101 38.5431C74.3685 39.1936 75.0106 39.7659 75.7191 40.2445C77.1265 41.2213 78.7356 41.8611 80.4241 42.1153V42.1334Z" fill="#1F4068"/>
<path d="M100.848 42.1457C101.617 42.2822 102.404 42.2846 103.173 42.1526C103.939 42.0269 104.664 41.7162 105.286 41.2471C105.903 40.7729 106.401 40.1575 106.739 39.4512C107.083 38.7425 107.331 37.9899 107.476 37.2137C107.447 37.4096 107.417 37.6054 107.384 37.8012C107.351 37.9971 107.302 38.1901 107.247 38.3832C107.14 38.7678 107.002 39.1426 106.835 39.504C106.669 39.8689 106.461 40.2121 106.214 40.5262C105.971 40.845 105.686 41.129 105.368 41.3707C104.725 41.8492 103.974 42.1581 103.183 42.2693C102.404 42.3844 101.611 42.3424 100.848 42.1457Z" fill="#1F4068"/>
<path d="M105.526 21.5764C105.802 23.4116 105.966 25.2624 106.015 27.1181C106.075 28.9728 106.001 30.8296 105.795 32.6736C105.685 33.597 105.523 34.5132 105.31 35.4181C105.101 36.3254 104.812 37.2118 104.445 38.0667C104.087 38.9272 103.606 39.7306 103.018 40.4514C102.427 41.1675 101.689 41.7456 100.855 42.1459C101.668 41.7211 102.383 41.1282 102.954 40.4056C103.526 39.6852 103.992 38.8847 104.337 38.0292C105.048 36.3264 105.426 34.4986 105.643 32.6653C105.855 30.8263 105.94 28.9746 105.898 27.1236C105.885 26.1972 105.843 25.2722 105.782 24.3459C105.72 23.4195 105.639 22.4972 105.526 21.5764Z" fill="#1F4068"/>
<path d="M83.1117 7.28172C83.6253 6.85672 84.2914 6.65394 84.9506 6.58728C85.6172 6.53893 86.287 6.62146 86.9227 6.83033C87.2398 6.93033 87.5501 7.0519 87.8511 7.19422L87.9651 7.24422L88.0749 7.30394L88.2933 7.42339C88.4389 7.50394 88.5845 7.58171 88.7273 7.66782C89.0019 7.8581 89.2766 8.03867 89.5513 8.2345C89.826 8.43033 90.0635 8.65116 90.3149 8.87061C90.0402 8.68311 89.7765 8.48728 89.5073 8.297C89.2382 8.10672 88.958 7.94561 88.6737 7.77061L88.2384 7.54283L88.0214 7.42755L87.9129 7.36922L87.8003 7.322C87.5029 7.18757 87.1974 7.07251 86.8856 6.97755C86.2669 6.76668 85.6152 6.67253 84.963 6.69978C84.6371 6.71678 84.3143 6.77272 84.0016 6.86644C83.6845 6.95496 83.384 7.09523 83.1117 7.28172Z" fill="#1F4068"/>
<path d="M82.2809 6.31805C81.9488 6.02668 81.5993 5.75626 81.2344 5.50833C80.8737 5.25627 80.4995 5.02446 80.1137 4.81389C79.3477 4.38761 78.5314 4.06096 77.6843 3.84166C76.8401 3.61407 75.9646 3.52775 75.0928 3.58611C74.9835 3.59025 74.8743 3.59998 74.7659 3.61527C74.6574 3.62916 74.549 3.64028 74.4405 3.65555C74.2262 3.69861 74.0092 3.72916 73.7991 3.79444C73.3721 3.89879 72.9534 4.03528 72.5466 4.20278C73.3408 3.80476 74.2007 3.55761 75.0832 3.47361C75.5249 3.42986 75.9695 3.42986 76.4112 3.47361C76.8538 3.51168 77.2925 3.58693 77.7227 3.69861C78.5803 3.92729 79.4033 4.27158 80.17 4.72222C80.9384 5.16048 81.6478 5.69682 82.2809 6.31805Z" fill="#1F4068"/>
<path d="M71.7708 25.4998C71.9424 25.0456 72.1031 24.5873 72.2638 24.1303C72.4245 23.6734 72.5824 23.2136 72.7348 22.7525C73.0493 21.8345 73.3419 20.9081 73.6316 19.9831C74.2126 18.1317 74.7688 16.2678 75.1904 14.3706C75.612 12.4734 76.0144 10.5679 76.6434 8.72066C76.9647 7.804 77.33 6.88455 77.9055 6.08178C78.1834 5.67361 78.5497 5.33494 78.9767 5.0915C79.4133 4.86347 79.914 4.79385 80.3953 4.89428V4.90955C80.1584 4.87708 79.9182 4.88083 79.6826 4.92066C79.4494 4.96405 79.2248 5.04569 79.0179 5.16233C78.6105 5.40994 78.2645 5.74812 78.0057 6.15122C77.7394 6.55207 77.5095 6.97648 77.319 7.41928C77.1227 7.85816 76.9524 8.31093 76.7958 8.76926C76.4799 9.68454 76.2135 10.6179 75.9608 11.547C75.7081 12.4762 75.4719 13.4262 75.2439 14.3706C75.016 15.315 74.788 16.2609 74.5408 17.2011C74.2936 18.1414 74.045 19.0817 73.758 20.0095C73.1949 21.8709 72.5361 23.701 71.7845 25.4928L71.7708 25.4998Z" fill="#1F4068"/>
<path d="M73.6453 8.16113C73.1295 8.86109 72.665 9.59823 72.2555 10.3667L71.9506 10.9431C71.8462 11.1333 71.7596 11.3347 71.6648 11.5292L71.3901 12.1181L71.1362 12.7181C70.4656 14.3225 69.9251 15.9794 69.5197 17.6723C69.4249 18.0973 69.3384 18.5237 69.245 18.9501C69.2024 19.1626 69.1504 19.375 69.116 19.5889L69.0172 20.2348C68.954 20.6653 68.8798 21.0945 68.8263 21.5264L68.6985 22.8264L68.6326 23.4764L68.6052 24.1292L68.5502 25.4362C68.5351 25.6542 68.5391 25.8723 68.5418 26.0903L68.5502 26.7445L68.5626 28.0528L68.509 26.7445L68.4843 26.0903C68.4761 25.8723 68.4651 25.6542 68.4747 25.4348L68.509 24.1251L68.5269 23.4695L68.5818 22.8167L68.6943 21.5112C68.7465 21.0764 68.818 20.6459 68.8798 20.2126L68.976 19.5639C69.0089 19.3487 69.0597 19.1348 69.1023 18.9209C69.1916 18.4931 69.274 18.0639 69.3687 17.6362C69.7813 15.9366 70.3358 14.2756 71.0264 12.6708C71.7336 11.0778 72.5631 9.52502 73.6453 8.16113Z" fill="#1F4068"/>
<path d="M82.7697 6.89981C82.5755 6.82199 82.3588 6.82499 82.1668 6.90814C81.9784 6.99487 81.8138 7.12697 81.6875 7.29287C81.4406 7.6319 81.2547 8.01224 81.1382 8.41647C80.8635 9.22064 80.7729 10.0706 80.6246 10.9165C80.4763 11.7623 80.306 12.5956 80.137 13.4331C79.9681 14.2706 79.791 15.1081 79.5877 15.9331C79.3845 16.7581 79.1675 17.5928 78.901 18.4053C78.6401 19.2213 78.3362 20.0224 77.9905 20.8053C77.311 22.3784 76.4175 23.8477 75.3359 25.1706L75.3235 25.1609C76.3267 23.7884 77.1731 22.3053 77.8463 20.74C78.5172 19.1746 79.0722 17.5609 79.5067 15.9122C79.7292 15.0886 79.9187 14.2567 80.0807 13.4123C80.2428 12.5679 80.365 11.7276 80.4927 10.8845C80.5614 10.4679 80.615 10.0401 80.696 9.61786C80.7751 9.19408 80.8835 8.7764 81.0201 8.36786C81.0896 8.16339 81.1735 7.96426 81.2714 7.77203C81.368 7.57764 81.4873 7.39578 81.6271 7.23036C81.7654 7.06047 81.9446 6.92943 82.1476 6.84981C82.249 6.81064 82.357 6.79279 82.4654 6.79732C82.5739 6.80186 82.6802 6.82869 82.778 6.87621L82.7697 6.89981Z" fill="#1F4068"/>
<path d="M81.4926 5.64978C81.5853 5.4324 81.7038 5.22721 81.8455 5.03867C81.9842 4.84779 82.1401 4.6702 82.3111 4.50811C82.6585 4.18481 83.0579 3.92367 83.4921 3.73589C84.3656 3.36228 85.3393 3.29561 86.269 3.40672C87.1992 3.53425 88.1079 3.78889 88.9704 4.16367C89.8278 4.53234 90.6545 4.97032 91.4424 5.47339L90.8244 5.14561C90.6198 5.0345 90.4124 4.94007 90.1982 4.8359C89.9839 4.73174 89.7765 4.63868 89.565 4.54146C89.3535 4.44424 89.1366 4.36089 88.9209 4.27478C88.0634 3.92061 87.1642 3.68063 86.2457 3.56089C85.3323 3.42182 84.3991 3.51735 83.532 3.83867C83.1025 4.00942 82.7045 4.25218 82.355 4.55672C82.0018 4.86265 81.7091 5.23356 81.4926 5.64978Z" fill="#1F4068"/>
<path d="M92.3062 6.05823C92.9938 6.53014 93.6423 7.0578 94.2454 7.63601C94.5494 7.92398 94.8441 8.22027 95.1298 8.52491C95.4168 8.82908 95.6874 9.14712 95.9538 9.46795C96.4798 10.1193 96.9646 10.8027 97.4233 11.5013C97.882 12.1999 98.3091 12.9193 98.7005 13.661C98.798 13.8457 98.89 14.0346 98.9861 14.2165L99.2526 14.786L99.5272 15.3527C99.6165 15.5402 99.7003 15.7318 99.8019 15.9152C99.9914 16.2874 100.177 16.6596 100.387 17.0263C100.597 17.3929 100.799 17.7471 101.017 18.104C101.455 18.8074 101.934 19.4831 102.452 20.1277C102.967 20.7821 103.557 21.3715 104.21 21.8832L104.202 21.8971C103.516 21.4196 102.896 20.8506 102.36 20.2054C101.816 19.569 101.319 18.8932 100.872 18.1832C100.428 17.472 100.024 16.7361 99.6618 15.979C99.475 15.604 99.3144 15.2165 99.1413 14.8346L98.8982 14.2665C98.809 14.0777 98.7238 13.8874 98.6318 13.6999C98.2664 12.9492 97.8501 12.2248 97.3862 11.5318C96.918 10.842 96.4099 10.1806 95.8645 9.55128C94.7953 8.27438 93.6022 7.10887 92.3035 6.07212L92.3062 6.05823Z" fill="#1F4068"/>
<path d="M75.3276 3.92358C74.7084 4.02547 74.111 4.23406 73.5615 4.54025C73.4224 4.61061 73.2884 4.6909 73.1605 4.78053C73.0269 4.86169 72.8985 4.95122 72.776 5.04858L72.4079 5.34164C72.2912 5.44581 72.1813 5.55692 72.0673 5.66386C71.1806 6.55646 70.4265 7.57447 69.8288 8.68608L69.7079 8.88886L69.5981 9.09858L69.377 9.51525L69.1572 9.93192L68.9553 10.3611C68.818 10.6486 68.6807 10.9333 68.5571 11.2222L68.1876 12.0958C68.1272 12.2347 68.0627 12.3861 68.0036 12.5333L67.8333 12.9764L67.4927 13.8639C67.2702 14.4569 67.0684 15.0583 66.8486 15.6527C67.0354 15.0472 67.2236 14.4402 67.4213 13.8375L67.7427 12.9416L67.9034 12.493C67.9597 12.3444 68.0201 12.1986 68.0791 12.0514L68.4362 11.168C68.5626 10.8764 68.6985 10.5903 68.8304 10.3014L69.0295 9.86803L69.2479 9.45136L69.4662 9.0347L69.5761 8.8222L69.6969 8.61664C70.3273 7.51664 71.0552 6.45553 71.9863 5.58608C72.1044 5.48053 72.2184 5.36942 72.3392 5.26664L72.7183 4.97914C72.8442 4.88242 72.9763 4.79426 73.1138 4.71525C73.2455 4.6274 73.3833 4.54897 73.5258 4.48053C74.0886 4.18747 74.6989 3.99885 75.3276 3.92358Z" fill="#1F4068"/>
<path d="M65.9601 17.6276C65.7142 18.511 65.4286 19.3804 65.1223 20.2429C64.9676 20.6735 64.8083 21.103 64.6444 21.5318C64.4741 21.9485 64.3066 22.3818 64.1225 22.8012C63.7572 23.6346 63.3713 24.4679 62.9772 25.2943L62.6847 25.9137C62.5885 26.1207 62.491 26.3304 62.41 26.5401L62.2809 26.8568L62.1628 27.1776C62.0818 27.3915 62.0172 27.611 61.9472 27.8262C61.6799 28.6978 61.4897 29.5915 61.3786 30.4971C61.2729 31.4026 61.2384 32.3151 61.2756 33.2262C61.3186 34.138 61.414 35.0465 61.5613 35.9471C61.6313 36.3998 61.7096 36.8498 61.7879 37.3012C61.8725 37.7518 61.934 38.2067 61.9719 38.6637H61.9554C61.9046 38.2082 61.8044 37.7623 61.7137 37.3137C61.6231 36.8651 61.5256 36.4179 61.439 35.9665C61.269 35.0635 61.1597 34.1498 61.1122 33.2318C61.0137 31.3887 61.2622 29.5436 61.8442 27.7943C61.9225 27.5776 61.9925 27.3596 62.0804 27.1471L62.2067 26.8276L62.3441 26.5123C62.5267 26.0957 62.7314 25.679 62.9291 25.2721C63.3219 24.4471 63.6762 23.6054 64.0113 22.754L64.5112 21.479C64.6787 21.054 64.843 20.6276 65.0042 20.1998C65.3242 19.3443 65.6387 18.486 65.9395 17.6221L65.9601 17.6276Z" fill="#1F4068"/>
<path d="M71.5881 4.91254C70.8839 5.62422 70.2257 6.38087 69.6173 7.17782C69.0044 7.96923 68.4364 8.7951 67.9157 9.65143C67.3881 10.5042 66.9213 11.3939 66.5191 12.3139C66.1071 13.2348 65.7569 14.175 65.4053 15.1181C64.7035 17.0042 64.0319 18.9028 63.3082 20.7806C62.947 21.7209 62.5735 22.6556 62.1683 23.5778C61.7632 24.5 61.3443 25.4237 60.7826 26.2584L60.7703 26.25C61.0283 25.8198 61.2604 25.3739 61.4652 24.9153C61.6794 24.4625 61.8772 23.9973 62.0653 23.5264L62.34 22.832L62.6147 22.1278L63.164 20.7209C63.874 18.8389 64.584 16.9542 65.3298 15.0848C65.7047 14.15 66.081 13.2167 66.4724 12.2903C66.5671 12.057 66.6729 11.8278 66.7772 11.5959L66.9311 11.2514C66.9846 11.1362 67.0423 11.025 67.0972 10.9112C67.317 10.4584 67.5587 10.0153 67.81 9.57921C68.3242 8.71204 68.8984 7.88267 69.528 7.09726C70.1518 6.30843 70.8381 5.57221 71.5798 4.89587L71.5881 4.91254Z" fill="#1F4068"/>
<path d="M69.5775 43.3429C69.0493 43.0432 68.5956 42.6257 68.2509 42.1221C67.9009 41.6246 67.6006 41.0933 67.3541 40.536C67.1111 39.9793 66.9016 39.4083 66.7265 38.8263C66.5518 38.2456 66.414 37.654 66.3145 37.0554C66.3941 37.3485 66.4751 37.6388 66.5658 37.9276C66.6564 38.2165 66.7443 38.504 66.8404 38.7888C67.0355 39.3596 67.2524 39.9249 67.4942 40.4721C67.615 40.7499 67.7455 41.0201 67.8856 41.2832C68.0229 41.5471 68.1849 41.8026 68.3484 42.0526C68.5112 42.3028 68.6951 42.5383 68.8977 42.7568C69.0997 42.9796 69.3281 43.1764 69.5775 43.3429Z" fill="#1F4068"/>
<path d="M68.1355 38.1653C67.9707 38.3142 67.7612 38.4027 67.5408 38.4167C67.3113 38.4282 67.086 38.3524 66.9091 38.2042C66.8224 38.1321 66.7446 38.0502 66.677 37.9598C66.6152 37.871 66.5592 37.7782 66.5094 37.682C66.4648 37.5823 66.4254 37.4803 66.3913 37.3764C66.3666 37.2709 66.3364 37.1667 66.3158 37.0612C66.3694 37.1556 66.4133 37.2528 66.4614 37.3473C66.5094 37.4417 66.5657 37.5306 66.6138 37.625C66.7169 37.8009 66.8488 37.9577 67.0038 38.0889C67.1545 38.2174 67.3426 38.2925 67.5394 38.3028C67.7463 38.3067 67.9509 38.2596 68.1355 38.1653Z" fill="#1F4068"/>
<path d="M69.0652 19.5124C68.3501 20.991 67.7228 22.5113 67.1865 24.0652C66.9118 24.8402 66.6591 25.6221 66.4586 26.4263C66.2579 27.2239 66.1087 28.0341 66.0123 28.8513C65.9116 29.6661 65.8658 30.4871 65.875 31.3082C65.8803 32.1275 65.9612 32.9445 66.1167 33.7485C66.1521 33.9503 66.198 34.1502 66.254 34.3471C66.3048 34.5443 66.3501 34.7443 66.4188 34.9374C66.4875 35.1304 66.5397 35.3277 66.6124 35.5179L66.8487 36.0832C67.1925 36.8278 67.6247 37.5274 68.1355 38.1666L68.1231 38.1777C67.5728 37.5642 67.1075 36.8778 66.7402 36.1374C66.3832 35.387 66.1224 34.5935 65.9642 33.7763C65.9285 33.5721 65.8832 33.3693 65.8557 33.1638L65.7829 32.5457C65.7569 32.1291 65.7253 31.7193 65.7335 31.3054C65.7331 30.4784 65.7982 29.6525 65.9285 28.836C66.1848 27.2052 66.5649 25.5967 67.0656 24.0249C67.3211 23.2416 67.615 22.4721 67.9487 21.7166C68.274 20.9599 68.6409 20.2223 69.0474 19.5068L69.0652 19.5124Z" fill="#1F4068"/>
<path d="M74.9349 45.986C74.6352 45.8383 74.3476 45.6664 74.0751 45.4721C73.799 45.2819 73.5327 45.0774 73.2772 44.8596C72.7672 44.4213 72.2949 43.9399 71.8654 43.4208C71.0097 42.3764 70.3118 41.2096 69.7944 39.9583C69.5386 39.3327 69.3198 38.6921 69.1394 38.0402C69.0611 37.7124 68.965 37.3874 68.9032 37.0541L68.8015 36.5583L68.7232 36.0583C68.6175 35.3902 68.5584 34.7166 68.5159 34.0444C68.5008 33.7069 68.498 33.3694 68.4884 33.0319L68.5063 32.0208C68.5061 33.3671 68.6174 34.7112 68.8386 36.0388L68.9279 36.5346L69.0336 37.0263C69.0968 37.3555 69.1929 37.6763 69.274 37.9985C69.4574 38.6431 69.6784 39.2762 69.9359 39.8944C70.1919 40.5124 70.4877 41.1128 70.8217 41.6916C71.1609 42.268 71.54 42.8194 71.9561 43.3416C72.3722 43.8653 72.8316 44.3523 73.3294 44.7971C73.8187 45.2531 74.3572 45.652 74.9349 45.986Z" fill="#1F4068"/>
<path d="M105.165 19.1552L104.955 18.24L104.75 17.3247C104.613 16.715 104.482 16.1025 104.338 15.4941C104.194 14.8858 104.063 14.2761 103.905 13.6706C103.833 13.3664 103.752 13.065 103.669 12.7636L103.546 12.3108C103.499 12.1622 103.455 12.0122 103.408 11.8608C103.644 12.4413 103.847 13.0348 104.015 13.6386C104.191 14.2413 104.338 14.8511 104.484 15.4594C104.629 16.0677 104.751 16.6844 104.865 17.3011C104.979 17.9177 105.085 18.5288 105.165 19.1552Z" fill="#1F4068"/>
<path d="M79.294 4.32899C79.1705 4.09533 79.1112 3.83253 79.1223 3.56788C79.1386 3.29885 79.2234 3.03864 79.3681 2.81232C79.5141 2.58813 79.7005 2.39357 79.9175 2.23871C80.0218 2.15954 80.1331 2.09149 80.2416 2.01788C80.3501 1.94427 80.4654 1.87899 80.5794 1.82204C81.0385 1.57958 81.5207 1.38461 82.0185 1.2401C82.5116 1.09243 83.0175 0.992904 83.5292 0.942871C83.2779 0.997038 83.0294 1.05676 82.7822 1.1276C82.535 1.19843 82.2918 1.26648 82.0501 1.35398C81.5679 1.51943 81.0988 1.72139 80.6466 1.95815C80.203 2.2026 79.7527 2.46649 79.4629 2.87899C79.3172 3.08721 79.2256 3.32899 79.196 3.58225C79.1665 3.83553 79.2002 4.09224 79.294 4.32899Z" fill="#1F4068"/>
<path d="M76.4139 3.53179C76.3475 3.38514 76.3111 3.2264 76.3068 3.06513C76.2991 2.90189 76.3186 2.7385 76.3645 2.58179C76.4084 2.42432 76.4801 2.27614 76.576 2.14429C76.6673 2.01225 76.7824 1.89871 76.9152 1.80957C76.8292 1.9377 76.7499 2.07029 76.6776 2.20679C76.6076 2.33921 76.5518 2.47892 76.5114 2.62346C76.4286 2.91853 76.3957 3.22563 76.4139 3.53179Z" fill="#1F4068"/>
<path d="M63.1338 33.1193C63.197 33.685 63.2762 34.247 63.3714 34.8054C63.4648 35.3609 63.5719 35.9165 63.6969 36.472C63.9343 37.5786 64.2646 38.6626 64.6843 39.7123C64.8932 40.2354 65.1439 40.7402 65.4341 41.222C65.7213 41.7038 66.074 42.1425 66.482 42.5248C66.8882 42.9094 67.3815 43.1873 67.9185 43.3345C68.4639 43.4662 69.0321 43.4662 69.5775 43.3345C69.032 43.5055 68.4518 43.5286 67.8947 43.4012C67.3377 43.274 66.8235 43.0011 66.4037 42.6095C65.978 42.2277 65.6113 41.7834 65.316 41.2915C65.0176 40.8043 64.7591 40.2934 64.5428 39.7637C64.1241 38.7045 63.8022 37.6087 63.5815 36.4901C63.3534 35.3787 63.2038 34.2522 63.1338 33.1193Z" fill="#1F4068"/>
<path d="M103.712 42.0972C103.713 42.2697 103.727 42.4419 103.753 42.6124C103.765 42.6972 103.781 42.7819 103.796 42.8666C103.811 42.9513 103.833 43.0333 103.856 43.1138C103.944 43.4419 104.077 43.7556 104.252 44.0458C104.423 44.3373 104.635 44.602 104.882 44.8319C105.133 45.064 105.406 45.2709 105.696 45.4499C105.617 45.4152 105.54 45.3791 105.462 45.3416C105.382 45.3072 105.305 45.2679 105.231 45.2236C105.082 45.1337 104.939 45.0326 104.805 44.9208C104.531 44.6994 104.298 44.4298 104.118 44.1249C103.937 43.822 103.809 43.4891 103.741 43.1416C103.668 42.7981 103.658 42.4441 103.712 42.0972Z" fill="#1F4068"/>
<path d="M98.8351 44.5597C98.9161 44.7944 99.0095 45.0222 99.1098 45.2541C99.21 45.4861 99.3144 45.6958 99.4339 45.9069C99.551 46.1197 99.6827 46.3239 99.828 46.518C99.9754 46.7143 100.136 46.8998 100.309 47.0736C100.096 46.9448 99.9026 46.7847 99.736 46.5986C99.5686 46.4116 99.4226 46.2062 99.3006 45.9861C99.0508 45.5478 98.8925 45.0623 98.8351 44.5597Z" fill="#1F4068"/>
<path d="M73.4503 25.4248H72.7444C71.3526 25.4248 70.2244 26.5658 70.2244 27.9734V32.5248C70.2244 33.9323 71.3526 35.0734 72.7444 35.0734H73.4503C74.8421 35.0734 75.9704 33.9323 75.9704 32.5248V27.9734C75.9704 26.5658 74.8421 25.4248 73.4503 25.4248Z" fill="#FFC89F"/>
<path d="M73.8719 26.9332C73.6368 26.9681 73.4063 27.03 73.1852 27.118C72.9707 27.2084 72.7688 27.327 72.5851 27.4707C72.4046 27.6132 72.246 27.7816 72.114 27.9707C71.9776 28.1545 71.8719 28.3595 71.8009 28.5777C71.7201 28.7925 71.6737 29.0189 71.6636 29.2485C71.6471 29.4846 71.6498 29.736 71.6333 29.9777C71.6114 30.468 71.5784 30.9499 71.5139 31.4457C71.4507 30.9569 71.4177 30.4735 71.3944 29.9777C71.382 29.7319 71.3738 29.493 71.3738 29.2388C71.3764 28.8474 71.4755 28.463 71.662 28.12C71.8485 27.7771 72.1168 27.4867 72.4422 27.2749C72.6532 27.137 72.8851 27.0352 73.1289 26.9735C73.3725 26.9175 73.6237 26.9039 73.8719 26.9332Z" fill="#FF9A6C"/>
<path d="M72.9421 32.1582C72.9833 32.0096 73.0342 31.8804 73.0795 31.7526L73.2168 31.3804L73.3541 31.0054C73.4008 30.8776 73.4448 30.7471 73.5093 30.6068C73.5688 30.746 73.5964 30.8969 73.5904 31.0485C73.5873 31.1986 73.559 31.3469 73.5066 31.4874C73.4551 31.6281 73.3813 31.7595 73.2882 31.8763C73.1947 31.9949 73.0766 32.0911 72.9421 32.1582Z" fill="#FF9A6C"/>
<path d="M73.6728 36.3111C74.4481 36.3111 75.0764 35.6755 75.0764 34.8916C75.0764 34.1077 74.4481 33.4722 73.6728 33.4722C72.8977 33.4722 72.2693 34.1077 72.2693 34.8916C72.2693 35.6755 72.8977 36.3111 73.6728 36.3111Z" fill="#2E4B58"/>
<g style="mix-blend-mode:multiply" opacity="0.4">
<path d="M137.352 58.9236L139.075 59.3402C139.075 59.3402 138.504 54.1319 136.699 51.343C136.692 51.3444 138.702 54.4333 137.352 58.9236Z" fill="#A65B3C"/>
</g>
<g style="mix-blend-mode:multiply" opacity="0.4">
<path d="M57.7421 46.3778C57.7421 46.3778 54.0135 47.5027 53.8762 53.3458C53.8447 51.5215 54.0717 49.7021 54.5505 47.943C54.6837 47.4771 54.9655 47.0687 55.352 46.7816C55.7384 46.4946 56.208 46.3447 56.6874 46.3555L57.7421 46.3778Z" fill="#A65B3C"/>
</g>
<g style="mix-blend-mode:multiply" opacity="0.4">
<path d="M116.363 52.6552C116.363 52.6552 114.147 52.8511 114.34 54.8191C114.283 54.1419 114.415 53.462 114.721 52.8566C114.825 52.6543 115.002 52.4991 115.214 52.4219C115.427 52.3448 115.661 52.3512 115.869 52.44L116.363 52.6552Z" fill="#A65B3C"/>
</g>
<path d="M137.352 58.9235C137.456 58.578 137.536 58.2257 137.593 57.8693C137.622 57.6916 137.65 57.5124 137.672 57.3346C137.694 57.1568 137.712 56.9763 137.721 56.7971C137.777 56.0788 137.757 55.3566 137.659 54.643L137.628 54.3749L137.578 54.1096C137.543 53.9332 137.519 53.7541 137.474 53.5805C137.381 53.2332 137.295 52.886 137.169 52.5471C136.931 51.8663 136.63 51.2102 136.268 50.5874L136.543 51.0513C136.641 51.2034 136.729 51.3616 136.808 51.5249L137.04 52.0152C137.124 52.1763 137.177 52.3512 137.241 52.5192C137.496 53.1991 137.669 53.9074 137.758 54.6289C137.853 55.3498 137.865 56.0789 137.798 56.8027C137.739 57.5259 137.589 58.2385 137.352 58.9235Z" fill="#A65B3C"/>
<path d="M110.249 57.3501C110.259 56.7982 110.313 56.2482 110.412 55.7056C110.513 55.1623 110.65 54.6267 110.824 54.1028C110.999 53.5791 111.219 53.0716 111.481 52.5862C111.742 52.1013 112.054 51.6456 112.409 51.2264L112.174 51.5639L112.056 51.732L111.952 51.9084L111.74 52.2598L111.551 52.6237C111.302 53.1105 111.091 53.6162 110.92 54.1362C110.745 54.6549 110.601 55.1842 110.491 55.7209C110.436 55.9903 110.385 56.2598 110.346 56.532C110.308 56.8042 110.268 57.0723 110.249 57.3501Z" fill="#A65B3C"/>
<path d="M93.5903 56.8917C94.0161 56.7208 94.4351 56.5375 94.8512 56.3444C95.2673 56.1514 95.6752 55.9569 96.0872 55.75C96.9112 55.3333 97.7091 54.9014 98.4933 54.4278C99.2776 53.9553 100.038 53.4426 100.77 52.8917C101.129 52.6139 101.495 52.3361 101.832 52.0166C102.168 51.6972 102.501 51.3889 102.83 51.0667C102.214 51.7535 101.541 52.3854 100.818 52.9555C100.09 53.5187 99.3316 54.04 98.5455 54.5166C97.7558 54.9847 96.9483 55.425 96.1215 55.8222C95.2964 56.2223 94.4517 56.5793 93.5903 56.8917Z" fill="#A65B3C"/>
<path d="M114.916 56.5167C114.696 56.1511 114.531 55.7547 114.427 55.3403C114.312 54.9217 114.301 54.4809 114.395 54.057C114.45 53.8445 114.546 53.6452 114.678 53.4709C114.811 53.299 114.974 53.1531 115.159 53.0403C115.529 52.8281 115.939 52.6988 116.363 52.6611C115.952 52.7368 115.558 52.8885 115.201 53.1084C115.03 53.2215 114.878 53.3622 114.752 53.525C114.631 53.6914 114.543 53.8802 114.494 54.0806C114.4 54.4885 114.404 54.9131 114.504 55.3195C114.594 55.7335 114.733 56.1352 114.916 56.5167Z" fill="#A65B3C"/>
<path d="M53.9901 55.8221C53.8537 54.9171 53.8077 54.0004 53.8528 53.086C53.8922 52.1693 54.0416 51.2609 54.2977 50.3804C54.5535 49.4953 54.9786 48.6696 55.5489 47.9499C55.8433 47.6003 56.1781 47.2874 56.5459 47.0179C56.92 46.7602 57.3224 46.5467 57.7448 46.3818C57.3306 46.5614 56.9384 46.7888 56.5761 47.0596C56.2201 47.3342 55.8974 47.6503 55.6148 48.0013C55.0619 48.7189 54.6497 49.5368 54.4007 50.411C54.1435 51.2832 53.9882 52.1828 53.9379 53.0916C53.9063 53.5457 53.8967 54.0013 53.9063 54.4568C53.9102 54.9131 53.9382 55.3689 53.9901 55.8221Z" fill="#A65B3C"/>
<path d="M44.1021 56.0277C43.3933 55.6138 42.7092 55.1584 42.053 54.6638C41.3938 54.1736 40.7594 53.65 40.1468 53.1013C39.5343 52.5527 38.9438 51.9764 38.389 51.368C37.8346 50.7627 37.312 50.1286 36.8234 49.468C37.3507 50.0986 37.885 50.718 38.4576 51.3125C39.0303 51.9069 39.6126 52.4791 40.2251 53.0236C40.8376 53.568 41.4611 54.0972 42.1121 54.6C42.7631 55.1027 43.4154 55.5861 44.1021 56.0277Z" fill="#A65B3C"/>
<path d="M143.338 59.1917C144.073 58.5917 144.79 57.9709 145.501 57.3431C146.213 56.7153 146.913 56.075 147.598 55.4195C148.284 54.7639 148.963 54.1014 149.627 53.4223L150.124 52.9125L150.611 52.3931C150.941 52.0514 151.254 51.6986 151.573 51.3445C150.96 52.0723 150.337 52.7917 149.68 53.4778C149.024 54.1639 148.352 54.8389 147.664 55.4945C146.976 56.15 146.27 56.7861 145.548 57.4028C144.825 58.0195 144.096 58.6209 143.338 59.1917Z" fill="#A65B3C"/>
<path d="M124.357 52.5304C124.357 52.5304 127.722 58.2123 134.932 62.5304L131.478 68.5457C131.478 68.5457 131.674 71.4137 129.778 73.2068C128.858 74.0748 127.324 74.179 126.384 73.3262L126.281 73.2276C126.281 73.2276 124.475 74.486 122.962 71.9679C122.962 71.9679 121.402 72.2651 120.431 71.2957C120.278 71.1397 120.172 70.9433 120.125 70.729L119.375 67.5012L117.521 72.7082L115.437 79.0096C115.327 79.344 115.096 79.6246 114.791 79.796C114.486 79.9673 114.129 80.0173 113.789 79.936C113.436 79.851 113.129 79.6303 112.934 79.3205C112.738 79.0107 112.67 78.6361 112.743 78.2762L113.979 72.1415L115.499 66.0304C115.499 66.0304 113.777 66.7443 112.332 66.0165C112.15 65.9212 111.996 65.7793 111.885 65.6047C111.774 65.4303 111.71 65.2293 111.7 65.0219C111.691 64.8147 111.735 64.6085 111.829 64.424C111.922 64.2394 112.062 64.0832 112.235 63.9707L116.355 61.2457L119.228 56.8498C119.873 55.861 120.705 55.0112 121.677 54.3498L124.357 52.5304Z" fill="#FFC89F"/>
<path d="M67.148 48.9486L76.245 51.2736C76.7462 51.4015 77.2289 51.5937 77.6816 51.8458L79.0384 52.6L85.3736 53.4444C85.4986 53.4611 85.6222 53.4819 85.7458 53.5056L89.8123 54.3194C90.1968 54.3957 90.5878 54.4333 90.9796 54.4319L95.0996 54.4139C95.2842 54.4124 95.4655 54.4637 95.6223 54.5622C95.7791 54.6606 95.9052 54.8019 95.9858 54.9699C96.0664 55.1378 96.0983 55.3254 96.0778 55.5108C96.0574 55.6964 95.9854 55.8722 95.8701 56.0181C95.2122 56.8194 93.6906 57.5028 90.2037 56.9083H82.3083L85.9449 60.9681L89.447 64.2861C89.6049 64.435 89.7168 64.6268 89.7694 64.8386C89.822 65.0503 89.8131 65.2729 89.7436 65.4796C89.6741 65.6862 89.5471 65.8683 89.3777 66.0037C89.2084 66.1392 89.0041 66.2222 88.7891 66.2431C87.7907 66.3264 86.335 65.7403 84.4164 63.2153L80.3582 60.2472L77.2448 58.6L77.7241 59.1417C78.1085 59.574 78.4203 60.0671 78.647 60.6014L79.8336 63.4014L81.6395 66.6736C81.7225 66.8222 81.7653 66.9904 81.7637 67.1611C81.7619 67.3318 81.7159 67.499 81.6299 67.6461C81.5441 67.7931 81.4214 67.9146 81.2743 67.9983C81.1273 68.0822 80.9609 68.1254 80.7922 68.1236C79.9585 68.0944 78.7404 67.3417 77.2036 64.4528L75.2672 61.6292L72.4958 59.5069L64.7914 58.0222C64.7914 58.0222 64.367 53.1694 67.148 48.9486Z" fill="#FFC89F"/>
<path d="M70.5182 49.7985C71.253 49.9568 71.9849 50.1262 72.7156 50.2998C73.4462 50.4735 74.174 50.6582 74.9033 50.836C75.2686 50.9235 75.6312 51.0235 75.9937 51.1137C76.3638 51.1983 76.7256 51.3168 77.0745 51.4679C77.4195 51.6236 77.7539 51.8022 78.0757 52.0026C78.3998 52.1929 78.728 52.379 79.0549 52.5582H79.0425C80.2895 52.7374 81.5406 52.8804 82.7917 53.0235L84.6664 53.2485C84.9795 53.2901 85.2885 53.3193 85.6057 53.3735C85.923 53.4276 86.2265 53.4901 86.5368 53.5485L90.2339 54.2901C90.5425 54.3317 90.8537 54.3503 91.165 54.3457L92.1085 54.361C92.7388 54.3679 93.3678 54.3874 93.9982 54.4026V54.4332C93.3678 54.454 92.7389 54.479 92.1099 54.4915L91.1664 54.5137C90.8456 54.5265 90.5242 54.5154 90.205 54.4804C89.5678 54.3929 88.969 54.2568 88.3414 54.1387L86.4888 53.7707C86.1812 53.7096 85.8694 53.6318 85.5659 53.5846C85.2624 53.5373 84.9452 53.4929 84.6348 53.4457L82.7657 53.1679C81.5214 52.9776 80.2758 52.7887 79.0261 52.636C78.6965 52.4554 78.3655 52.2748 78.0331 52.0998C77.7075 51.9161 77.3708 51.7533 77.0251 51.6124C76.6765 51.4814 76.3196 51.3751 75.9566 51.2943C75.5927 51.2012 75.2274 51.1151 74.858 51.0165C74.1315 50.8221 73.4036 50.6387 72.6799 50.436C71.9561 50.2332 71.2324 50.036 70.5114 49.8221L70.5182 49.7985Z" fill="#FF9A6C"/>
<path d="M82.3111 56.9084C82.0437 56.6685 81.7399 56.4735 81.4116 56.3306L80.4145 55.9209C79.7484 55.6431 79.0892 55.3653 78.43 55.075L77.444 54.6348C77.1133 54.4778 76.8025 54.281 76.5183 54.0486L75.6531 53.3986C75.3689 53.175 75.0805 52.9584 74.8003 52.7306C75.1079 52.9195 75.4073 53.1195 75.7108 53.3139L76.609 53.9167C76.7601 54.0153 76.907 54.1223 77.0553 54.2139C77.2049 54.3056 77.361 54.3859 77.5223 54.4542L78.5124 54.8834C79.1689 55.1764 79.8267 55.4681 80.4777 55.775L81.4569 56.2389C81.7784 56.4095 82.0676 56.6361 82.3111 56.9084Z" fill="#FF9A6C"/>
<path d="M77.2448 58.6C76.8768 58.307 76.5252 57.9986 76.175 57.6875C75.8248 57.3764 75.4883 57.0556 75.1436 56.7347L74.6382 56.2431C74.4707 56.0732 74.3173 55.8897 74.1795 55.6945C74.0433 55.4996 73.9212 55.2949 73.8142 55.082C73.7167 54.8653 73.6178 54.6528 73.5286 54.4333C73.7868 54.8292 74.0065 55.2445 74.3059 55.5972C74.6103 55.9475 74.9375 56.277 75.2851 56.5833C75.6215 56.9083 75.958 57.2333 76.2835 57.5708C76.609 57.9083 76.9358 58.2431 77.2448 58.6Z" fill="#FF9A6C"/>
<path d="M119.375 67.4985C119.237 67.2596 119.122 67.0263 119 66.804C118.941 66.6888 118.875 66.579 118.812 66.4665C118.749 66.354 118.674 66.2485 118.599 66.129C118.853 66.2476 119.058 66.4512 119.181 66.7054C119.245 66.8282 119.294 66.9576 119.329 67.0915C119.366 67.2239 119.381 67.3613 119.375 67.4985Z" fill="#FF9A6C"/>
<path d="M115.502 66.0247C115.569 65.3678 115.672 64.7233 115.776 64.0803C115.881 63.4372 115.998 62.7928 116.154 62.1511C116.152 62.8096 116.094 63.4667 115.98 64.115C115.877 64.7647 115.717 65.4038 115.502 66.0247Z" fill="#FF9A6C"/>
<path d="M122.723 68.5916C122.683 68.8791 122.661 69.1652 122.645 69.4485C122.63 69.7313 122.63 70.0145 122.645 70.2971C122.659 70.577 122.693 70.8554 122.745 71.1304C122.8 71.4127 122.872 71.691 122.962 71.9638C122.798 71.722 122.673 71.4559 122.59 71.1749C122.504 70.8931 122.454 70.6014 122.44 70.3068C122.404 69.7207 122.5 69.1341 122.723 68.5916Z" fill="#FF9A6C"/>
<path d="M126.281 73.2248C126.079 72.6062 125.976 71.9586 125.976 71.3068C125.973 70.9819 125.99 70.6572 126.027 70.3345C126.064 70.012 126.125 69.693 126.211 69.3804L126.188 70.3526C126.18 70.6734 126.18 70.9929 126.188 71.3109C126.196 71.629 126.203 71.9498 126.218 72.2693C126.233 72.5887 126.248 72.9054 126.281 73.2248Z" fill="#FF9A6C"/>
</g>
<defs>
<clipPath id="clip0_4117_52256">
<rect width="175.238" height="80" fill="white"/>
</clipPath>
</defs>
</svg>
