<svg width="48" height="48" viewBox="0 0 48 48" fill="none" xmlns="http://www.w3.org/2000/svg">
<g clip-path="url(#clip0_388_14298)">
<path fill-rule="evenodd" clip-rule="evenodd" d="M36 48H12C8.81744 47.9999 5.76528 46.7355 3.51487 44.4851C1.26447 42.2347 0.000139228 39.1826 0 36L0 12C0.000139228 8.81744 1.26447 5.76528 3.51487 3.51487C5.76528 1.26447 8.81744 0.000139228 12 0L36 0C39.1826 0 42.2348 1.26428 44.4853 3.51472C46.7357 5.76516 48 8.8174 48 12V36C48 39.1826 46.7357 42.2348 44.4853 44.4853C42.2348 46.7357 39.1826 48 36 48Z" fill="#DEEBF5"/>
<path fill-rule="evenodd" clip-rule="evenodd" d="M22.5 13.5H36C37.7305 13.4999 39.3948 12.8352 40.6493 11.6433C41.9038 10.4514 42.6526 8.82319 42.7412 7.095C42.8297 5.36682 42.2512 3.67062 41.1251 2.3567C39.9991 1.04278 38.4114 0.211486 36.69 0.0345C36.4605 0.02175 36.2332 0 36 0H12C8.81744 0.000139228 5.76528 1.26447 3.51487 3.51487C1.26447 5.76528 0.000139228 8.81744 0 12L0 36C0.000139233 30.0327 2.37071 24.3098 6.59025 20.0903C10.8098 15.8707 16.5327 13.5001 22.5 13.5Z" fill="#F0FAFF"/>
<path fill-rule="evenodd" clip-rule="evenodd" d="M36 24C33.6266 24 31.3066 24.7038 29.3332 26.0224C27.3598 27.3409 25.8217 29.2151 24.9135 31.4078C24.0052 33.6005 23.7676 36.0133 24.2306 38.3411C24.6936 40.6689 25.8365 42.8071 27.5147 44.4853C29.193 46.1635 31.3312 47.3064 33.6589 47.7694C35.9867 48.2324 38.3995 47.9948 40.5922 47.0866C42.7849 46.1783 44.6591 44.6402 45.9776 42.6668C47.2962 40.6935 48 38.3734 48 36V12C48 15.1826 46.7357 18.2348 44.4853 20.4853C42.2349 22.7357 39.1826 24 36 24Z" fill="#CDDCEB"/>
<path d="M39 24.3517C39 23.7675 38.973 23.181 38.9182 22.5982C38.8825 22.2277 38.7099 21.8838 38.4342 21.6336C38.1585 21.3835 37.7995 21.245 37.4272 21.2452C34.746 21.2422 28.6387 21.2422 25.8022 21.2422C25.4044 21.2422 25.0229 21.4003 24.7416 21.6816C24.4603 21.9629 24.3022 22.3444 24.3022 22.7422V25.635C24.3024 26.0328 24.4605 26.4142 24.7417 26.6955C25.023 26.9768 25.4045 27.1349 25.8022 27.135H32.5672C32.398 28.0765 32.0398 28.9739 31.5141 29.7731C30.9884 30.5723 30.3062 31.2567 29.5087 31.785V31.7865C29.5087 32.2884 29.6076 32.7854 29.7996 33.2492C29.9917 33.7129 30.2732 34.1342 30.6281 34.4891C30.983 34.844 31.4044 35.1256 31.8681 35.3176C32.3318 35.5097 32.8288 35.6085 33.3307 35.6085H34.44C37.3357 32.9437 39 29.0078 39 24.3517Z" fill="#1E78FF"/>
<path d="M24.3023 39.303C28.0303 39.4078 31.658 38.0865 34.4453 35.6085L29.5148 31.785C28.3273 32.545 26.9823 33.0245 25.5818 33.1871C24.1814 33.3497 22.7623 33.1911 21.4323 32.7233C20.1023 32.2556 18.8963 31.4911 17.9059 30.4877C16.9155 29.4843 16.1666 28.2685 15.7163 26.9325H14.568C13.5229 26.9326 12.5207 27.3478 11.7818 28.0868C11.0428 28.8257 10.6276 29.8279 10.6275 30.873V30.8745C11.9021 33.4085 13.8557 35.5385 16.2704 37.0268C18.685 38.5151 21.4658 39.3031 24.3023 39.303Z" fill="#00B450"/>
<path d="M15.711 26.9325C15.0697 25.0324 15.0697 22.9744 15.711 21.0742V21.0727C15.7109 20.0277 15.2957 19.0255 14.5567 18.2865C13.8178 17.5475 12.8156 17.1323 11.7705 17.1322H10.6275C9.55742 19.2647 9.00018 21.6175 9.00018 24.0034C9.00018 26.3892 9.55742 28.7421 10.6275 30.8745L15.711 26.9325Z" fill="#FFB400"/>
<path d="M24.3023 14.754C26.0449 14.7265 27.7524 15.2465 29.184 16.2405C29.4681 16.4474 29.8168 16.546 30.1672 16.5185C30.5176 16.491 30.8466 16.3392 31.095 16.0905C31.7813 15.4395 32.6835 14.5373 33.3945 13.8263C33.5453 13.6755 33.6622 13.4944 33.7375 13.2949C33.8128 13.0954 33.8447 12.8822 33.8311 12.6694C33.8174 12.4567 33.7586 12.2492 33.6585 12.061C33.5584 11.8727 33.4193 11.708 33.2505 11.5778C30.6584 9.67409 27.5181 8.66367 24.3023 8.6985C21.4651 8.69814 18.6836 9.48667 16.2688 10.976C13.8539 12.4653 11.9008 14.5968 10.6275 17.1323L15.711 21.0743C16.3027 19.255 17.4497 17.6669 18.9908 16.5332C20.5318 15.3996 22.3893 14.7773 24.3023 14.754Z" fill="#E60014"/>
</g>
<defs>
<clipPath id="clip0_388_14298">
<rect width="48" height="48" fill="white"/>
</clipPath>
</defs>
</svg>
